<?xml version="1.0" encoding="utf-8"?>
<svg xmlns="http://www.w3.org/2000/svg" xmlns:xlink="http://www.w3.org/1999/xlink" xml:space="preserve" width="984" height="984" viewBox="0 0 984 984"><rect width="984" height="984" fill="#ffffff" x="0" y="0"/><g fill="#000000">
<g transform="translate(240,48) scale(4.12)"><circle cx="3" cy="3" r="2.5"/></g>
<g transform="translate(288,48) scale(4.12)"><circle cx="3" cy="3" r="2.5"/></g>
<g transform="translate(336,48) scale(4.12)"><path d="M6,5.5H3C1.6,5.5,0.5,4.4,0.5,3v0c0-1.4,1.1-2.5,2.5-2.5h3V5.5z"/></g>
<g transform="translate(360,48) scale(4.12)"><rect y="0.5" width="6" height="5"/></g>
<g transform="translate(384,48) scale(4.12)"><rect y="0.5" width="6" height="5"/></g>
<g transform="translate(408,48) scale(4.12)"><rect y="0.5" width="6" height="5"/></g>
<g transform="translate(432,48) scale(4.12)"><rect y="0.5" width="6" height="5"/></g>
<g transform="translate(456,48) scale(4.12)"><rect y="0.5" width="6" height="5"/></g>
<g transform="translate(480,48) scale(4.12)"><path d="M3,5.5H0v-5h3c1.4,0,2.5,1.1,2.5,2.5v0C5.5,4.4,4.4,5.5,3,5.5z"/></g>
<g transform="translate(528,48) scale(4.12)"><path d="M6,5.5H3C1.6,5.5,0.5,4.4,0.5,3v0c0-1.4,1.1-2.5,2.5-2.5h3V5.5z"/></g>
<g transform="translate(552,48) scale(4.12)"><path d="M3,5.5H0v-5h3c1.4,0,2.5,1.1,2.5,2.5v0C5.5,4.4,4.4,5.5,3,5.5z"/></g>
<g transform="translate(720,48) scale(4.12)"><circle cx="3" cy="3" r="2.5"/></g>
<g transform="translate(288,72) scale(4.12)"><path d="M6,5.5H3C1.6,5.5,0.5,4.4,0.5,3v0c0-1.4,1.1-2.5,2.5-2.5h3V5.5z"/></g>
<g transform="translate(312,72) scale(4.12)"><rect y="0.5" width="6" height="5"/></g>
<g transform="translate(336,72) scale(4.12)"><rect y="0.5" width="6" height="5"/></g>
<g transform="translate(360,72) scale(4.12)"><rect y="0.5" width="6" height="5"/></g>
<g transform="translate(384,72) scale(4.12)"><path d="M3,5.5H0v-5h3c1.4,0,2.5,1.1,2.5,2.5v0C5.5,4.4,4.4,5.5,3,5.5z"/></g>
<g transform="translate(432,72) scale(4.12)"><path d="M6,5.5H3C1.6,5.5,0.5,4.4,0.5,3v0c0-1.4,1.1-2.5,2.5-2.5h3V5.5z"/></g>
<g transform="translate(456,72) scale(4.12)"><path d="M3,5.5H0v-5h3c1.4,0,2.5,1.1,2.5,2.5v0C5.5,4.4,4.4,5.5,3,5.5z"/></g>
<g transform="translate(504,72) scale(4.12)"><circle cx="3" cy="3" r="2.5"/></g>
<g transform="translate(576,72) scale(4.12)"><path d="M6,5.5H3C1.6,5.5,0.5,4.4,0.5,3v0c0-1.4,1.1-2.5,2.5-2.5h3V5.5z"/></g>
<g transform="translate(600,72) scale(4.12)"><rect y="0.5" width="6" height="5"/></g>
<g transform="translate(624,72) scale(4.12)"><path d="M3,5.5H0v-5h3c1.4,0,2.5,1.1,2.5,2.5v0C5.5,4.4,4.4,5.5,3,5.5z"/></g>
<g transform="translate(672,72) scale(4.12)"><path d="M6,5.5H3C1.6,5.5,0.5,4.4,0.5,3v0c0-1.4,1.1-2.5,2.5-2.5h3V5.5z"/></g>
<g transform="translate(696,72) scale(4.12)"><rect y="0.5" width="6" height="5"/></g>
<g transform="translate(720,72) scale(4.12)"><path d="M3,5.5H0v-5h3c1.4,0,2.5,1.1,2.5,2.5v0C5.5,4.4,4.4,5.5,3,5.5z"/></g>
<g transform="translate(288,96) scale(4.12)"><path d="M6,5.5H3C1.6,5.5,0.5,4.4,0.5,3v0c0-1.4,1.1-2.5,2.5-2.5h3V5.5z"/></g>
<g transform="translate(312,96) scale(4.12)"><path d="M3,5.5H0v-5h3c1.4,0,2.5,1.1,2.5,2.5v0C5.5,4.4,4.4,5.5,3,5.5z"/></g>
<g transform="translate(360,96) scale(4.12)"><path d="M6,5.5H3C1.6,5.5,0.5,4.4,0.5,3v0c0-1.4,1.1-2.5,2.5-2.5h3V5.5z"/></g>
<g transform="translate(384,96) scale(4.12)"><path d="M3,5.5H0v-5h3c1.4,0,2.5,1.1,2.5,2.5v0C5.5,4.4,4.4,5.5,3,5.5z"/></g>
<g transform="translate(528,96) scale(4.12)"><path d="M6,5.5H3C1.6,5.5,0.5,4.4,0.5,3v0c0-1.4,1.1-2.5,2.5-2.5h3V5.5z"/></g>
<g transform="translate(552,96) scale(4.12)"><rect y="0.5" width="6" height="5"/></g>
<g transform="translate(576,96) scale(4.12)"><rect y="0.5" width="6" height="5"/></g>
<g transform="translate(600,96) scale(4.12)"><path d="M3,5.5H0v-5h3c1.4,0,2.5,1.1,2.5,2.5v0C5.5,4.4,4.4,5.5,3,5.5z"/></g>
<g transform="translate(264,120) scale(4.12)"><path d="M6,5.5H3C1.6,5.5,0.5,4.4,0.5,3v0c0-1.4,1.1-2.5,2.5-2.5h3V5.5z"/></g>
<g transform="translate(288,120) scale(4.12)"><rect y="0.5" width="6" height="5"/></g>
<g transform="translate(312,120) scale(4.12)"><rect y="0.5" width="6" height="5"/></g>
<g transform="translate(336,120) scale(4.12)"><path d="M3,5.5H0v-5h3c1.4,0,2.5,1.1,2.5,2.5v0C5.5,4.4,4.4,5.5,3,5.5z"/></g>
<g transform="translate(384,120) scale(4.12)"><circle cx="3" cy="3" r="2.5"/></g>
<g transform="translate(456,120) scale(4.12)"><circle cx="3" cy="3" r="2.5"/></g>
<g transform="translate(576,120) scale(4.12)"><path d="M6,5.5H3C1.6,5.5,0.5,4.4,0.5,3v0c0-1.4,1.1-2.5,2.5-2.5h3V5.5z"/></g>
<g transform="translate(600,120) scale(4.12)"><rect y="0.5" width="6" height="5"/></g>
<g transform="translate(624,120) scale(4.12)"><rect y="0.5" width="6" height="5"/></g>
<g transform="translate(648,120) scale(4.12)"><rect y="0.5" width="6" height="5"/></g>
<g transform="translate(672,120) scale(4.12)"><rect y="0.5" width="6" height="5"/></g>
<g transform="translate(696,120) scale(4.12)"><path d="M3,5.5H0v-5h3c1.4,0,2.5,1.1,2.5,2.5v0C5.5,4.4,4.4,5.5,3,5.5z"/></g>
<g transform="translate(240,144) scale(4.12)"><path d="M6,5.5H3C1.6,5.5,0.5,4.4,0.5,3v0c0-1.4,1.1-2.5,2.5-2.5h3V5.5z"/></g>
<g transform="translate(264,144) scale(4.12)"><path d="M3,5.5H0v-5h3c1.4,0,2.5,1.1,2.5,2.5v0C5.5,4.4,4.4,5.5,3,5.5z"/></g>
<g transform="translate(312,144) scale(4.12)"><circle cx="3" cy="3" r="2.5"/></g>
<g transform="translate(360,144) scale(4.12)"><circle cx="3" cy="3" r="2.5"/></g>
<g transform="translate(432,144) scale(4.12)"><path d="M6,5.5H3C1.6,5.5,0.5,4.4,0.5,3v0c0-1.4,1.1-2.5,2.5-2.5h3V5.5z"/></g>
<g transform="translate(456,144) scale(4.12)"><path d="M3,5.5H0v-5h3c1.4,0,2.5,1.1,2.5,2.5v0C5.5,4.4,4.4,5.5,3,5.5z"/></g>
<g transform="translate(528,144) scale(4.12)"><path d="M6,5.5H3C1.6,5.5,0.5,4.4,0.5,3v0c0-1.4,1.1-2.5,2.5-2.5h3V5.5z"/></g>
<g transform="translate(552,144) scale(4.12)"><rect y="0.5" width="6" height="5"/></g>
<g transform="translate(576,144) scale(4.12)"><rect y="0.5" width="6" height="5"/></g>
<g transform="translate(600,144) scale(4.12)"><path d="M3,5.5H0v-5h3c1.4,0,2.5,1.1,2.5,2.5v0C5.5,4.4,4.4,5.5,3,5.5z"/></g>
<g transform="translate(648,144) scale(4.12)"><path d="M6,5.5H3C1.6,5.5,0.5,4.4,0.5,3v0c0-1.4,1.1-2.5,2.5-2.5h3V5.5z"/></g>
<g transform="translate(672,144) scale(4.12)"><path d="M3,5.5H0v-5h3c1.4,0,2.5,1.1,2.5,2.5v0C5.5,4.4,4.4,5.5,3,5.5z"/></g>
<g transform="translate(240,168) scale(4.12)"><circle cx="3" cy="3" r="2.5"/></g>
<g transform="translate(288,168) scale(4.12)"><path d="M6,5.5H3C1.6,5.5,0.5,4.4,0.5,3v0c0-1.4,1.1-2.5,2.5-2.5h3V5.5z"/></g>
<g transform="translate(312,168) scale(4.12)"><rect y="0.5" width="6" height="5"/></g>
<g transform="translate(336,168) scale(4.12)"><rect y="0.5" width="6" height="5"/></g>
<g transform="translate(360,168) scale(4.12)"><rect y="0.5" width="6" height="5"/></g>
<g transform="translate(384,168) scale(4.12)"><path d="M3,5.5H0v-5h3c1.4,0,2.5,1.1,2.5,2.5v0C5.5,4.4,4.4,5.5,3,5.5z"/></g>
<g transform="translate(432,168) scale(4.12)"><path d="M6,5.5H3C1.6,5.5,0.5,4.4,0.5,3v0c0-1.4,1.1-2.5,2.5-2.5h3V5.5z"/></g>
<g transform="translate(456,168) scale(4.12)"><rect y="0.5" width="6" height="5"/></g>
<g transform="translate(480,168) scale(4.12)"><path d="M3,5.5H0v-5h3c1.4,0,2.5,1.1,2.5,2.5v0C5.5,4.4,4.4,5.5,3,5.5z"/></g>
<g transform="translate(552,168) scale(4.12)"><path d="M6,5.5H3C1.6,5.5,0.5,4.4,0.5,3v0c0-1.4,1.1-2.5,2.5-2.5h3V5.5z"/></g>
<g transform="translate(576,168) scale(4.12)"><path d="M3,5.5H0v-5h3c1.4,0,2.5,1.1,2.5,2.5v0C5.5,4.4,4.4,5.5,3,5.5z"/></g>
<g transform="translate(648,168) scale(4.12)"><path d="M6,5.5H3C1.6,5.5,0.5,4.4,0.5,3v0c0-1.4,1.1-2.5,2.5-2.5h3V5.5z"/></g>
<g transform="translate(672,168) scale(4.12)"><rect y="0.5" width="6" height="5"/></g>
<g transform="translate(696,168) scale(4.12)"><rect y="0.5" width="6" height="5"/></g>
<g transform="translate(720,168) scale(4.12)"><path d="M3,5.5H0v-5h3c1.4,0,2.5,1.1,2.5,2.5v0C5.5,4.4,4.4,5.5,3,5.5z"/></g>
<g transform="translate(240,192) scale(4.12)"><circle cx="3" cy="3" r="2.5"/></g>
<g transform="translate(288,192) scale(4.12)"><circle cx="3" cy="3" r="2.5"/></g>
<g transform="translate(336,192) scale(4.12)"><circle cx="3" cy="3" r="2.5"/></g>
<g transform="translate(384,192) scale(4.12)"><circle cx="3" cy="3" r="2.5"/></g>
<g transform="translate(432,192) scale(4.12)"><circle cx="3" cy="3" r="2.5"/></g>
<g transform="translate(480,192) scale(4.12)"><circle cx="3" cy="3" r="2.5"/></g>
<g transform="translate(528,192) scale(4.12)"><circle cx="3" cy="3" r="2.5"/></g>
<g transform="translate(576,192) scale(4.12)"><circle cx="3" cy="3" r="2.5"/></g>
<g transform="translate(624,192) scale(4.12)"><circle cx="3" cy="3" r="2.5"/></g>
<g transform="translate(672,192) scale(4.12)"><circle cx="3" cy="3" r="2.5"/></g>
<g transform="translate(720,192) scale(4.12)"><circle cx="3" cy="3" r="2.5"/></g>
<g transform="translate(288,216) scale(4.12)"><path d="M6,5.5H3C1.6,5.5,0.5,4.4,0.5,3v0c0-1.4,1.1-2.5,2.5-2.5h3V5.5z"/></g>
<g transform="translate(312,216) scale(4.12)"><rect y="0.5" width="6" height="5"/></g>
<g transform="translate(336,216) scale(4.12)"><path d="M3,5.5H0v-5h3c1.4,0,2.5,1.1,2.5,2.5v0C5.5,4.4,4.4,5.5,3,5.5z"/></g>
<g transform="translate(480,216) scale(4.12)"><path d="M6,5.5H3C1.6,5.5,0.5,4.4,0.5,3v0c0-1.4,1.1-2.5,2.5-2.5h3V5.5z"/></g>
<g transform="translate(504,216) scale(4.12)"><rect y="0.5" width="6" height="5"/></g>
<g transform="translate(528,216) scale(4.12)"><rect y="0.5" width="6" height="5"/></g>
<g transform="translate(552,216) scale(4.12)"><rect y="0.5" width="6" height="5"/></g>
<g transform="translate(576,216) scale(4.12)"><rect y="0.5" width="6" height="5"/></g>
<g transform="translate(600,216) scale(4.12)"><path d="M3,5.5H0v-5h3c1.4,0,2.5,1.1,2.5,2.5v0C5.5,4.4,4.4,5.5,3,5.5z"/></g>
<g transform="translate(648,216) scale(4.12)"><circle cx="3" cy="3" r="2.5"/></g>
<g transform="translate(720,216) scale(4.12)"><circle cx="3" cy="3" r="2.5"/></g>
<g transform="translate(72,240) scale(4.12)"><path d="M6,5.5H3C1.6,5.5,0.5,4.4,0.5,3v0c0-1.4,1.1-2.5,2.5-2.5h3V5.5z"/></g>
<g transform="translate(96,240) scale(4.12)"><rect y="0.5" width="6" height="5"/></g>
<g transform="translate(120,240) scale(4.12)"><rect y="0.5" width="6" height="5"/></g>
<g transform="translate(144,240) scale(4.12)"><rect y="0.5" width="6" height="5"/></g>
<g transform="translate(168,240) scale(4.12)"><rect y="0.5" width="6" height="5"/></g>
<g transform="translate(192,240) scale(4.12)"><rect y="0.5" width="6" height="5"/></g>
<g transform="translate(216,240) scale(4.12)"><path d="M3,5.5H0v-5h3c1.4,0,2.5,1.1,2.5,2.5v0C5.5,4.4,4.4,5.5,3,5.5z"/></g>
<g transform="translate(264,240) scale(4.12)"><circle cx="3" cy="3" r="2.5"/></g>
<g transform="translate(312,240) scale(4.12)"><circle cx="3" cy="3" r="2.5"/></g>
<g transform="translate(360,240) scale(4.12)"><path d="M6,5.5H3C1.6,5.5,0.5,4.4,0.5,3v0c0-1.4,1.1-2.5,2.5-2.5h3V5.5z"/></g>
<g transform="translate(384,240) scale(4.12)"><rect y="0.5" width="6" height="5"/></g>
<g transform="translate(408,240) scale(4.12)"><path d="M3,5.5H0v-5h3c1.4,0,2.5,1.1,2.5,2.5v0C5.5,4.4,4.4,5.5,3,5.5z"/></g>
<g transform="translate(456,240) scale(4.12)"><path d="M6,5.5H3C1.6,5.5,0.5,4.4,0.5,3v0c0-1.4,1.1-2.5,2.5-2.5h3V5.5z"/></g>
<g transform="translate(480,240) scale(4.12)"><rect y="0.5" width="6" height="5"/></g>
<g transform="translate(504,240) scale(4.12)"><rect y="0.5" width="6" height="5"/></g>
<g transform="translate(528,240) scale(4.12)"><path d="M3,5.5H0v-5h3c1.4,0,2.5,1.1,2.5,2.5v0C5.5,4.4,4.4,5.5,3,5.5z"/></g>
<g transform="translate(576,240) scale(4.12)"><path d="M6,5.5H3C1.6,5.5,0.5,4.4,0.5,3v0c0-1.4,1.1-2.5,2.5-2.5h3V5.5z"/></g>
<g transform="translate(600,240) scale(4.12)"><rect y="0.5" width="6" height="5"/></g>
<g transform="translate(624,240) scale(4.12)"><path d="M3,5.5H0v-5h3c1.4,0,2.5,1.1,2.5,2.5v0C5.5,4.4,4.4,5.5,3,5.5z"/></g>
<g transform="translate(672,240) scale(4.12)"><circle cx="3" cy="3" r="2.5"/></g>
<g transform="translate(720,240) scale(4.12)"><circle cx="3" cy="3" r="2.5"/></g>
<g transform="translate(792,240) scale(4.12)"><path d="M6,5.5H3C1.6,5.5,0.5,4.4,0.5,3v0c0-1.4,1.1-2.5,2.5-2.5h3V5.5z"/></g>
<g transform="translate(816,240) scale(4.12)"><path d="M3,5.5H0v-5h3c1.4,0,2.5,1.1,2.5,2.5v0C5.5,4.4,4.4,5.5,3,5.5z"/></g>
<g transform="translate(912,240) scale(4.12)"><circle cx="3" cy="3" r="2.5"/></g>
<g transform="translate(264,264) scale(4.12)"><path d="M6,5.5H3C1.6,5.5,0.5,4.4,0.5,3v0c0-1.4,1.1-2.5,2.5-2.5h3V5.5z"/></g>
<g transform="translate(288,264) scale(4.12)"><rect y="0.5" width="6" height="5"/></g>
<g transform="translate(312,264) scale(4.12)"><rect y="0.5" width="6" height="5"/></g>
<g transform="translate(336,264) scale(4.12)"><rect y="0.5" width="6" height="5"/></g>
<g transform="translate(360,264) scale(4.12)"><path d="M3,5.5H0v-5h3c1.4,0,2.5,1.1,2.5,2.5v0C5.5,4.4,4.4,5.5,3,5.5z"/></g>
<g transform="translate(432,264) scale(4.12)"><circle cx="3" cy="3" r="2.5"/></g>
<g transform="translate(504,264) scale(4.12)"><circle cx="3" cy="3" r="2.5"/></g>
<g transform="translate(600,264) scale(4.12)"><circle cx="3" cy="3" r="2.5"/></g>
<g transform="translate(648,264) scale(4.12)"><circle cx="3" cy="3" r="2.5"/></g>
<g transform="translate(696,264) scale(4.12)"><circle cx="3" cy="3" r="2.5"/></g>
<g transform="translate(792,264) scale(4.12)"><circle cx="3" cy="3" r="2.5"/></g>
<g transform="translate(864,264) scale(4.12)"><circle cx="3" cy="3" r="2.5"/></g>
<g transform="translate(120,288) scale(4.12)"><circle cx="3" cy="3" r="2.5"/></g>
<g transform="translate(192,288) scale(4.12)"><path d="M6,5.5H3C1.6,5.5,0.5,4.4,0.5,3v0c0-1.4,1.1-2.5,2.5-2.5h3V5.5z"/></g>
<g transform="translate(216,288) scale(4.12)"><rect y="0.5" width="6" height="5"/></g>
<g transform="translate(240,288) scale(4.12)"><path d="M3,5.5H0v-5h3c1.4,0,2.5,1.1,2.5,2.5v0C5.5,4.4,4.4,5.5,3,5.5z"/></g>
<g transform="translate(288,288) scale(4.12)"><circle cx="3" cy="3" r="2.5"/></g>
<g transform="translate(336,288) scale(4.12)"><path d="M6,5.5H3C1.6,5.5,0.5,4.4,0.5,3v0c0-1.4,1.1-2.5,2.5-2.5h3V5.5z"/></g>
<g transform="translate(360,288) scale(4.12)"><rect y="0.5" width="6" height="5"/></g>
<g transform="translate(384,288) scale(4.12)"><rect y="0.5" width="6" height="5"/></g>
<g transform="translate(408,288) scale(4.12)"><rect y="0.5" width="6" height="5"/></g>
<g transform="translate(432,288) scale(4.12)"><path d="M3,5.5H0v-5h3c1.4,0,2.5,1.1,2.5,2.5v0C5.5,4.4,4.4,5.5,3,5.5z"/></g>
<g transform="translate(480,288) scale(4.12)"><circle cx="3" cy="3" r="2.5"/></g>
<g transform="translate(576,288) scale(4.12)"><circle cx="3" cy="3" r="2.5"/></g>
<g transform="translate(648,288) scale(4.12)"><path d="M6,5.5H3C1.6,5.5,0.5,4.4,0.5,3v0c0-1.4,1.1-2.5,2.5-2.5h3V5.5z"/></g>
<g transform="translate(672,288) scale(4.12)"><rect y="0.5" width="6" height="5"/></g>
<g transform="translate(696,288) scale(4.12)"><rect y="0.5" width="6" height="5"/></g>
<g transform="translate(720,288) scale(4.12)"><path d="M3,5.5H0v-5h3c1.4,0,2.5,1.1,2.5,2.5v0C5.5,4.4,4.4,5.5,3,5.5z"/></g>
<g transform="translate(768,288) scale(4.12)"><circle cx="3" cy="3" r="2.5"/></g>
<g transform="translate(816,288) scale(4.12)"><circle cx="3" cy="3" r="2.5"/></g>
<g transform="translate(912,288) scale(4.12)"><circle cx="3" cy="3" r="2.5"/></g>
<g transform="translate(48,312) scale(4.12)"><circle cx="3" cy="3" r="2.5"/></g>
<g transform="translate(96,312) scale(4.12)"><circle cx="3" cy="3" r="2.5"/></g>
<g transform="translate(144,312) scale(4.12)"><path d="M6,5.5H3C1.6,5.5,0.5,4.4,0.5,3v0c0-1.4,1.1-2.5,2.5-2.5h3V5.5z"/></g>
<g transform="translate(168,312) scale(4.12)"><path d="M3,5.5H0v-5h3c1.4,0,2.5,1.1,2.5,2.5v0C5.5,4.4,4.4,5.5,3,5.5z"/></g>
<g transform="translate(312,312) scale(4.12)"><path d="M6,5.5H3C1.6,5.5,0.5,4.4,0.5,3v0c0-1.4,1.1-2.5,2.5-2.5h3V5.5z"/></g>
<g transform="translate(336,312) scale(4.12)"><rect y="0.5" width="6" height="5"/></g>
<g transform="translate(360,312) scale(4.12)"><path d="M3,5.5H0v-5h3c1.4,0,2.5,1.1,2.5,2.5v0C5.5,4.4,4.4,5.5,3,5.5z"/></g>
<g transform="translate(456,312) scale(4.12)"><path d="M6,5.5H3C1.6,5.5,0.5,4.4,0.5,3v0c0-1.4,1.1-2.5,2.5-2.5h3V5.5z"/></g>
<g transform="translate(480,312) scale(4.12)"><path d="M3,5.5H0v-5h3c1.4,0,2.5,1.1,2.5,2.5v0C5.5,4.4,4.4,5.5,3,5.5z"/></g>
<g transform="translate(528,312) scale(4.12)"><path d="M6,5.5H3C1.6,5.5,0.5,4.4,0.5,3v0c0-1.4,1.1-2.5,2.5-2.5h3V5.5z"/></g>
<g transform="translate(552,312) scale(4.12)"><path d="M3,5.5H0v-5h3c1.4,0,2.5,1.1,2.5,2.5v0C5.5,4.4,4.4,5.5,3,5.5z"/></g>
<g transform="translate(672,312) scale(4.12)"><path d="M6,5.5H3C1.6,5.5,0.5,4.4,0.5,3v0c0-1.4,1.1-2.5,2.5-2.5h3V5.5z"/></g>
<g transform="translate(696,312) scale(4.12)"><path d="M3,5.5H0v-5h3c1.4,0,2.5,1.1,2.5,2.5v0C5.5,4.4,4.4,5.5,3,5.5z"/></g>
<g transform="translate(768,312) scale(4.12)"><circle cx="3" cy="3" r="2.5"/></g>
<g transform="translate(888,312) scale(4.12)"><circle cx="3" cy="3" r="2.5"/></g>
<g transform="translate(48,336) scale(4.12)"><circle cx="3" cy="3" r="2.5"/></g>
<g transform="translate(96,336) scale(4.12)"><path d="M6,5.5H3C1.6,5.5,0.5,4.4,0.5,3v0c0-1.4,1.1-2.5,2.5-2.5h3V5.5z"/></g>
<g transform="translate(120,336) scale(4.12)"><rect y="0.5" width="6" height="5"/></g>
<g transform="translate(144,336) scale(4.12)"><path d="M3,5.5H0v-5h3c1.4,0,2.5,1.1,2.5,2.5v0C5.5,4.4,4.4,5.5,3,5.5z"/></g>
<g transform="translate(192,336) scale(4.12)"><circle cx="3" cy="3" r="2.5"/></g>
<g transform="translate(240,336) scale(4.12)"><path d="M6,5.5H3C1.6,5.5,0.5,4.4,0.5,3v0c0-1.4,1.1-2.5,2.5-2.5h3V5.5z"/></g>
<g transform="translate(264,336) scale(4.12)"><path d="M3,5.5H0v-5h3c1.4,0,2.5,1.1,2.5,2.5v0C5.5,4.4,4.4,5.5,3,5.5z"/></g>
<g transform="translate(312,336) scale(4.12)"><path d="M6,5.5H3C1.6,5.5,0.5,4.4,0.5,3v0c0-1.4,1.1-2.5,2.5-2.5h3V5.5z"/></g>
<g transform="translate(336,336) scale(4.12)"><rect y="0.5" width="6" height="5"/></g>
<g transform="translate(360,336) scale(4.12)"><rect y="0.5" width="6" height="5"/></g>
<g transform="translate(384,336) scale(4.12)"><rect y="0.5" width="6" height="5"/></g>
<g transform="translate(408,336) scale(4.12)"><rect y="0.5" width="6" height="5"/></g>
<g transform="translate(432,336) scale(4.12)"><rect y="0.5" width="6" height="5"/></g>
<g transform="translate(456,336) scale(4.12)"><rect y="0.5" width="6" height="5"/></g>
<g transform="translate(480,336) scale(4.12)"><rect y="0.5" width="6" height="5"/></g>
<g transform="translate(504,336) scale(4.12)"><rect y="0.5" width="6" height="5"/></g>
<g transform="translate(528,336) scale(4.12)"><path d="M3,5.5H0v-5h3c1.4,0,2.5,1.1,2.5,2.5v0C5.5,4.4,4.4,5.5,3,5.5z"/></g>
<g transform="translate(576,336) scale(4.12)"><path d="M6,5.5H3C1.6,5.5,0.5,4.4,0.5,3v0c0-1.4,1.1-2.5,2.5-2.5h3V5.5z"/></g>
<g transform="translate(600,336) scale(4.12)"><path d="M3,5.5H0v-5h3c1.4,0,2.5,1.1,2.5,2.5v0C5.5,4.4,4.4,5.5,3,5.5z"/></g>
<g transform="translate(648,336) scale(4.12)"><path d="M6,5.5H3C1.6,5.5,0.5,4.4,0.5,3v0c0-1.4,1.1-2.5,2.5-2.5h3V5.5z"/></g>
<g transform="translate(672,336) scale(4.12)"><rect y="0.5" width="6" height="5"/></g>
<g transform="translate(696,336) scale(4.12)"><rect y="0.5" width="6" height="5"/></g>
<g transform="translate(720,336) scale(4.12)"><rect y="0.5" width="6" height="5"/></g>
<g transform="translate(744,336) scale(4.12)"><rect y="0.5" width="6" height="5"/></g>
<g transform="translate(768,336) scale(4.12)"><rect y="0.5" width="6" height="5"/></g>
<g transform="translate(792,336) scale(4.12)"><rect y="0.5" width="6" height="5"/></g>
<g transform="translate(816,336) scale(4.12)"><path d="M3,5.5H0v-5h3c1.4,0,2.5,1.1,2.5,2.5v0C5.5,4.4,4.4,5.5,3,5.5z"/></g>
<g transform="translate(864,336) scale(4.12)"><circle cx="3" cy="3" r="2.5"/></g>
<g transform="translate(912,336) scale(4.12)"><circle cx="3" cy="3" r="2.5"/></g>
<g transform="translate(72,360) scale(4.12)"><path d="M6,5.5H3C1.6,5.5,0.5,4.4,0.5,3v0c0-1.4,1.1-2.5,2.5-2.5h3V5.5z"/></g>
<g transform="translate(96,360) scale(4.12)"><path d="M3,5.5H0v-5h3c1.4,0,2.5,1.1,2.5,2.5v0C5.5,4.4,4.4,5.5,3,5.5z"/></g>
<g transform="translate(168,360) scale(4.12)"><circle cx="3" cy="3" r="2.5"/></g>
<g transform="translate(216,360) scale(4.12)"><path d="M6,5.5H3C1.6,5.5,0.5,4.4,0.5,3v0c0-1.4,1.1-2.5,2.5-2.5h3V5.5z"/></g>
<g transform="translate(240,360) scale(4.12)"><rect y="0.5" width="6" height="5"/></g>
<g transform="translate(264,360) scale(4.12)"><path d="M3,5.5H0v-5h3c1.4,0,2.5,1.1,2.5,2.5v0C5.5,4.4,4.4,5.5,3,5.5z"/></g>
<g transform="translate(312,360) scale(4.12)"><path d="M6,5.5H3C1.6,5.5,0.5,4.4,0.5,3v0c0-1.4,1.1-2.5,2.5-2.5h3V5.5z"/></g>
<g transform="translate(336,360) scale(4.12)"><rect y="0.5" width="6" height="5"/></g>
<g transform="translate(360,360) scale(4.12)"><path d="M3,5.5H0v-5h3c1.4,0,2.5,1.1,2.5,2.5v0C5.5,4.4,4.4,5.5,3,5.5z"/></g>
<g transform="translate(432,360) scale(4.12)"><path d="M6,5.5H3C1.6,5.5,0.5,4.4,0.5,3v0c0-1.4,1.1-2.5,2.5-2.5h3V5.5z"/></g>
<g transform="translate(456,360) scale(4.12)"><rect y="0.5" width="6" height="5"/></g>
<g transform="translate(480,360) scale(4.12)"><path d="M3,5.5H0v-5h3c1.4,0,2.5,1.1,2.5,2.5v0C5.5,4.4,4.4,5.5,3,5.5z"/></g>
<g transform="translate(528,360) scale(4.12)"><path d="M6,5.5H3C1.6,5.5,0.5,4.4,0.5,3v0c0-1.4,1.1-2.5,2.5-2.5h3V5.5z"/></g>
<g transform="translate(552,360) scale(4.12)"><path d="M3,5.5H0v-5h3c1.4,0,2.5,1.1,2.5,2.5v0C5.5,4.4,4.4,5.5,3,5.5z"/></g>
<g transform="translate(600,360) scale(4.12)"><circle cx="3" cy="3" r="2.5"/></g>
<g transform="translate(648,360) scale(4.12)"><circle cx="3" cy="3" r="2.5"/></g>
<g transform="translate(720,360) scale(4.12)"><path d="M6,5.5H3C1.6,5.5,0.5,4.4,0.5,3v0c0-1.4,1.1-2.5,2.5-2.5h3V5.5z"/></g>
<g transform="translate(744,360) scale(4.12)"><path d="M3,5.5H0v-5h3c1.4,0,2.5,1.1,2.5,2.5v0C5.5,4.4,4.4,5.5,3,5.5z"/></g>
<g transform="translate(792,360) scale(4.12)"><circle cx="3" cy="3" r="2.5"/></g>
<g transform="translate(840,360) scale(4.12)"><path d="M6,5.5H3C1.6,5.5,0.5,4.4,0.5,3v0c0-1.4,1.1-2.5,2.5-2.5h3V5.5z"/></g>
<g transform="translate(864,360) scale(4.12)"><rect y="0.5" width="6" height="5"/></g>
<g transform="translate(888,360) scale(4.12)"><path d="M3,5.5H0v-5h3c1.4,0,2.5,1.1,2.5,2.5v0C5.5,4.4,4.4,5.5,3,5.5z"/></g>
<g transform="translate(48,384) scale(4.12)"><path d="M6,5.5H3C1.6,5.5,0.5,4.4,0.5,3v0c0-1.4,1.1-2.5,2.5-2.5h3V5.5z"/></g>
<g transform="translate(72,384) scale(4.12)"><rect y="0.5" width="6" height="5"/></g>
<g transform="translate(96,384) scale(4.12)"><path d="M3,5.5H0v-5h3c1.4,0,2.5,1.1,2.5,2.5v0C5.5,4.4,4.4,5.5,3,5.5z"/></g>
<g transform="translate(144,384) scale(4.12)"><path d="M6,5.5H3C1.6,5.5,0.5,4.4,0.5,3v0c0-1.4,1.1-2.5,2.5-2.5h3V5.5z"/></g>
<g transform="translate(168,384) scale(4.12)"><rect y="0.5" width="6" height="5"/></g>
<g transform="translate(192,384) scale(4.12)"><rect y="0.5" width="6" height="5"/></g>
<g transform="translate(216,384) scale(4.12)"><path d="M3,5.5H0v-5h3c1.4,0,2.5,1.1,2.5,2.5v0C5.5,4.4,4.4,5.5,3,5.5z"/></g>
<g transform="translate(288,384) scale(4.12)"><path d="M6,5.5H3C1.6,5.5,0.5,4.4,0.5,3v0c0-1.4,1.1-2.5,2.5-2.5h3V5.5z"/></g>
<g transform="translate(312,384) scale(4.12)"><rect y="0.5" width="6" height="5"/></g>
<g transform="translate(336,384) scale(4.12)"><rect y="0.5" width="6" height="5"/></g>
<g transform="translate(360,384) scale(4.12)"><path d="M3,5.5H0v-5h3c1.4,0,2.5,1.1,2.5,2.5v0C5.5,4.4,4.4,5.5,3,5.5z"/></g>
<g transform="translate(456,384) scale(4.12)"><path d="M6,5.5H3C1.6,5.5,0.5,4.4,0.5,3v0c0-1.4,1.1-2.5,2.5-2.5h3V5.5z"/></g>
<g transform="translate(480,384) scale(4.12)"><path d="M3,5.5H0v-5h3c1.4,0,2.5,1.1,2.5,2.5v0C5.5,4.4,4.4,5.5,3,5.5z"/></g>
<g transform="translate(552,384) scale(4.12)"><circle cx="3" cy="3" r="2.5"/></g>
<g transform="translate(648,384) scale(4.12)"><path d="M6,5.5H3C1.6,5.5,0.5,4.4,0.5,3v0c0-1.4,1.1-2.5,2.5-2.5h3V5.5z"/></g>
<g transform="translate(672,384) scale(4.12)"><rect y="0.5" width="6" height="5"/></g>
<g transform="translate(696,384) scale(4.12)"><rect y="0.5" width="6" height="5"/></g>
<g transform="translate(720,384) scale(4.12)"><rect y="0.5" width="6" height="5"/></g>
<g transform="translate(744,384) scale(4.12)"><path d="M3,5.5H0v-5h3c1.4,0,2.5,1.1,2.5,2.5v0C5.5,4.4,4.4,5.5,3,5.5z"/></g>
<g transform="translate(792,384) scale(4.12)"><circle cx="3" cy="3" r="2.5"/></g>
<g transform="translate(840,384) scale(4.12)"><circle cx="3" cy="3" r="2.5"/></g>
<g transform="translate(888,384) scale(4.12)"><path d="M6,5.5H3C1.6,5.5,0.5,4.4,0.5,3v0c0-1.4,1.1-2.5,2.5-2.5h3V5.5z"/></g>
<g transform="translate(912,384) scale(4.12)"><path d="M3,5.5H0v-5h3c1.4,0,2.5,1.1,2.5,2.5v0C5.5,4.4,4.4,5.5,3,5.5z"/></g>
<g transform="translate(48,408) scale(4.12)"><circle cx="3" cy="3" r="2.5"/></g>
<g transform="translate(96,408) scale(4.12)"><circle cx="3" cy="3" r="2.5"/></g>
<g transform="translate(168,408) scale(4.12)"><circle cx="3" cy="3" r="2.5"/></g>
<g transform="translate(216,408) scale(4.12)"><path d="M6,5.5H3C1.6,5.5,0.5,4.4,0.5,3v0c0-1.4,1.1-2.5,2.5-2.5h3V5.5z"/></g>
<g transform="translate(240,408) scale(4.12)"><path d="M3,5.5H0v-5h3c1.4,0,2.5,1.1,2.5,2.5v0C5.5,4.4,4.4,5.5,3,5.5z"/></g>
<g transform="translate(336,408) scale(4.12)"><path d="M6,5.5H3C1.6,5.5,0.5,4.4,0.5,3v0c0-1.4,1.1-2.5,2.5-2.5h3V5.5z"/></g>
<g transform="translate(360,408) scale(4.12)"><path d="M3,5.5H0v-5h3c1.4,0,2.5,1.1,2.5,2.5v0C5.5,4.4,4.4,5.5,3,5.5z"/></g>
<g transform="translate(408,408) scale(4.12)"><path d="M6,5.5H3C1.6,5.5,0.5,4.4,0.5,3v0c0-1.4,1.1-2.5,2.5-2.5h3V5.5z"/></g>
<g transform="translate(432,408) scale(4.12)"><rect y="0.5" width="6" height="5"/></g>
<g transform="translate(456,408) scale(4.12)"><rect y="0.5" width="6" height="5"/></g>
<g transform="translate(480,408) scale(4.12)"><path d="M3,5.5H0v-5h3c1.4,0,2.5,1.1,2.5,2.5v0C5.5,4.4,4.4,5.5,3,5.5z"/></g>
<g transform="translate(528,408) scale(4.12)"><path d="M6,5.5H3C1.6,5.5,0.5,4.4,0.5,3v0c0-1.4,1.1-2.5,2.5-2.5h3V5.5z"/></g>
<g transform="translate(552,408) scale(4.12)"><rect y="0.5" width="6" height="5"/></g>
<g transform="translate(576,408) scale(4.12)"><rect y="0.5" width="6" height="5"/></g>
<g transform="translate(600,408) scale(4.12)"><path d="M3,5.5H0v-5h3c1.4,0,2.5,1.1,2.5,2.5v0C5.5,4.4,4.4,5.5,3,5.5z"/></g>
<g transform="translate(672,408) scale(4.12)"><path d="M6,5.5H3C1.6,5.5,0.5,4.4,0.5,3v0c0-1.4,1.1-2.5,2.5-2.5h3V5.5z"/></g>
<g transform="translate(696,408) scale(4.12)"><path d="M3,5.5H0v-5h3c1.4,0,2.5,1.1,2.5,2.5v0C5.5,4.4,4.4,5.5,3,5.5z"/></g>
<g transform="translate(744,408) scale(4.12)"><path d="M6,5.5H3C1.6,5.5,0.5,4.4,0.5,3v0c0-1.4,1.1-2.5,2.5-2.5h3V5.5z"/></g>
<g transform="translate(768,408) scale(4.12)"><rect y="0.5" width="6" height="5"/></g>
<g transform="translate(792,408) scale(4.12)"><path d="M3,5.5H0v-5h3c1.4,0,2.5,1.1,2.5,2.5v0C5.5,4.4,4.4,5.5,3,5.5z"/></g>
<g transform="translate(888,408) scale(4.12)"><path d="M6,5.5H3C1.6,5.5,0.5,4.4,0.5,3v0c0-1.4,1.1-2.5,2.5-2.5h3V5.5z"/></g>
<g transform="translate(912,408) scale(4.12)"><path d="M3,5.5H0v-5h3c1.4,0,2.5,1.1,2.5,2.5v0C5.5,4.4,4.4,5.5,3,5.5z"/></g>
<g transform="translate(48,432) scale(4.12)"><circle cx="3" cy="3" r="2.5"/></g>
<g transform="translate(144,432) scale(4.12)"><path d="M6,5.5H3C1.6,5.5,0.5,4.4,0.5,3v0c0-1.4,1.1-2.5,2.5-2.5h3V5.5z"/></g>
<g transform="translate(168,432) scale(4.12)"><rect y="0.5" width="6" height="5"/></g>
<g transform="translate(192,432) scale(4.12)"><rect y="0.5" width="6" height="5"/></g>
<g transform="translate(216,432) scale(4.12)"><rect y="0.5" width="6" height="5"/></g>
<g transform="translate(240,432) scale(4.12)"><path d="M3,5.5H0v-5h3c1.4,0,2.5,1.1,2.5,2.5v0C5.5,4.4,4.4,5.5,3,5.5z"/></g>
<g transform="translate(336,432) scale(4.12)"><circle cx="3" cy="3" r="2.5"/></g>
<g transform="translate(432,432) scale(4.12)"><circle cx="3" cy="3" r="2.5"/></g>
<g transform="translate(552,432) scale(4.12)"><circle cx="3" cy="3" r="2.5"/></g>
<g transform="translate(600,432) scale(4.12)"><circle cx="3" cy="3" r="2.5"/></g>
<g transform="translate(648,432) scale(4.12)"><path d="M6,5.5H3C1.6,5.5,0.5,4.4,0.5,3v0c0-1.4,1.1-2.5,2.5-2.5h3V5.5z"/></g>
<g transform="translate(672,432) scale(4.12)"><path d="M3,5.5H0v-5h3c1.4,0,2.5,1.1,2.5,2.5v0C5.5,4.4,4.4,5.5,3,5.5z"/></g>
<g transform="translate(744,432) scale(4.12)"><path d="M6,5.5H3C1.6,5.5,0.5,4.4,0.5,3v0c0-1.4,1.1-2.5,2.5-2.5h3V5.5z"/></g>
<g transform="translate(768,432) scale(4.12)"><path d="M3,5.5H0v-5h3c1.4,0,2.5,1.1,2.5,2.5v0C5.5,4.4,4.4,5.5,3,5.5z"/></g>
<g transform="translate(816,432) scale(4.12)"><circle cx="3" cy="3" r="2.5"/></g>
<g transform="translate(864,432) scale(4.12)"><path d="M6,5.5H3C1.6,5.5,0.5,4.4,0.5,3v0c0-1.4,1.1-2.5,2.5-2.5h3V5.5z"/></g>
<g transform="translate(888,432) scale(4.12)"><rect y="0.5" width="6" height="5"/></g>
<g transform="translate(912,432) scale(4.12)"><path d="M3,5.5H0v-5h3c1.4,0,2.5,1.1,2.5,2.5v0C5.5,4.4,4.4,5.5,3,5.5z"/></g>
<g transform="translate(96,456) scale(4.12)"><path d="M6,5.5H3C1.6,5.5,0.5,4.4,0.5,3v0c0-1.4,1.1-2.5,2.5-2.5h3V5.5z"/></g>
<g transform="translate(120,456) scale(4.12)"><path d="M3,5.5H0v-5h3c1.4,0,2.5,1.1,2.5,2.5v0C5.5,4.4,4.4,5.5,3,5.5z"/></g>
<g transform="translate(240,456) scale(4.12)"><path d="M6,5.5H3C1.6,5.5,0.5,4.4,0.5,3v0c0-1.4,1.1-2.5,2.5-2.5h3V5.5z"/></g>
<g transform="translate(264,456) scale(4.12)"><rect y="0.5" width="6" height="5"/></g>
<g transform="translate(288,456) scale(4.12)"><path d="M3,5.5H0v-5h3c1.4,0,2.5,1.1,2.5,2.5v0C5.5,4.4,4.4,5.5,3,5.5z"/></g>
<g transform="translate(336,456) scale(4.12)"><circle cx="3" cy="3" r="2.5"/></g>
<g transform="translate(384,456) scale(4.12)"><circle cx="3" cy="3" r="2.5"/></g>
<g transform="translate(456,456) scale(4.12)"><path d="M6,5.5H3C1.6,5.5,0.5,4.4,0.5,3v0c0-1.4,1.1-2.5,2.5-2.5h3V5.5z"/></g>
<g transform="translate(480,456) scale(4.12)"><path d="M3,5.5H0v-5h3c1.4,0,2.5,1.1,2.5,2.5v0C5.5,4.4,4.4,5.5,3,5.5z"/></g>
<g transform="translate(576,456) scale(4.12)"><circle cx="3" cy="3" r="2.5"/></g>
<g transform="translate(624,456) scale(4.12)"><circle cx="3" cy="3" r="2.5"/></g>
<g transform="translate(720,456) scale(4.12)"><circle cx="3" cy="3" r="2.5"/></g>
<g transform="translate(792,456) scale(4.12)"><circle cx="3" cy="3" r="2.5"/></g>
<g transform="translate(840,456) scale(4.12)"><circle cx="3" cy="3" r="2.5"/></g>
<g transform="translate(72,480) scale(4.12)"><circle cx="3" cy="3" r="2.5"/></g>
<g transform="translate(144,480) scale(4.12)"><circle cx="3" cy="3" r="2.5"/></g>
<g transform="translate(192,480) scale(4.12)"><circle cx="3" cy="3" r="2.5"/></g>
<g transform="translate(240,480) scale(4.12)"><path d="M6,5.5H3C1.6,5.5,0.5,4.4,0.5,3v0c0-1.4,1.1-2.5,2.5-2.5h3V5.5z"/></g>
<g transform="translate(264,480) scale(4.12)"><path d="M3,5.5H0v-5h3c1.4,0,2.5,1.1,2.5,2.5v0C5.5,4.4,4.4,5.5,3,5.5z"/></g>
<g transform="translate(312,480) scale(4.12)"><circle cx="3" cy="3" r="2.5"/></g>
<g transform="translate(360,480) scale(4.12)"><path d="M6,5.5H3C1.6,5.5,0.5,4.4,0.5,3v0c0-1.4,1.1-2.5,2.5-2.5h3V5.5z"/></g>
<g transform="translate(384,480) scale(4.12)"><path d="M3,5.5H0v-5h3c1.4,0,2.5,1.1,2.5,2.5v0C5.5,4.4,4.4,5.5,3,5.5z"/></g>
<g transform="translate(480,480) scale(4.12)"><path d="M6,5.5H3C1.6,5.5,0.5,4.4,0.5,3v0c0-1.4,1.1-2.5,2.5-2.5h3V5.5z"/></g>
<g transform="translate(504,480) scale(4.12)"><path d="M3,5.5H0v-5h3c1.4,0,2.5,1.1,2.5,2.5v0C5.5,4.4,4.4,5.5,3,5.5z"/></g>
<g transform="translate(552,480) scale(4.12)"><circle cx="3" cy="3" r="2.5"/></g>
<g transform="translate(648,480) scale(4.12)"><circle cx="3" cy="3" r="2.5"/></g>
<g transform="translate(696,480) scale(4.12)"><circle cx="3" cy="3" r="2.5"/></g>
<g transform="translate(744,480) scale(4.12)"><path d="M6,5.5H3C1.6,5.5,0.5,4.4,0.5,3v0c0-1.4,1.1-2.5,2.5-2.5h3V5.5z"/></g>
<g transform="translate(768,480) scale(4.12)"><rect y="0.5" width="6" height="5"/></g>
<g transform="translate(792,480) scale(4.12)"><path d="M3,5.5H0v-5h3c1.4,0,2.5,1.1,2.5,2.5v0C5.5,4.4,4.4,5.5,3,5.5z"/></g>
<g transform="translate(840,480) scale(4.12)"><path d="M6,5.5H3C1.6,5.5,0.5,4.4,0.5,3v0c0-1.4,1.1-2.5,2.5-2.5h3V5.5z"/></g>
<g transform="translate(864,480) scale(4.12)"><rect y="0.5" width="6" height="5"/></g>
<g transform="translate(888,480) scale(4.12)"><rect y="0.5" width="6" height="5"/></g>
<g transform="translate(912,480) scale(4.12)"><path d="M3,5.5H0v-5h3c1.4,0,2.5,1.1,2.5,2.5v0C5.5,4.4,4.4,5.5,3,5.5z"/></g>
<g transform="translate(72,504) scale(4.12)"><path d="M6,5.5H3C1.6,5.5,0.5,4.4,0.5,3v0c0-1.4,1.1-2.5,2.5-2.5h3V5.5z"/></g>
<g transform="translate(96,504) scale(4.12)"><path d="M3,5.5H0v-5h3c1.4,0,2.5,1.1,2.5,2.5v0C5.5,4.4,4.4,5.5,3,5.5z"/></g>
<g transform="translate(216,504) scale(4.12)"><path d="M6,5.5H3C1.6,5.5,0.5,4.4,0.5,3v0c0-1.4,1.1-2.5,2.5-2.5h3V5.5z"/></g>
<g transform="translate(240,504) scale(4.12)"><rect y="0.5" width="6" height="5"/></g>
<g transform="translate(264,504) scale(4.12)"><path d="M3,5.5H0v-5h3c1.4,0,2.5,1.1,2.5,2.5v0C5.5,4.4,4.4,5.5,3,5.5z"/></g>
<g transform="translate(312,504) scale(4.12)"><path d="M6,5.5H3C1.6,5.5,0.5,4.4,0.5,3v0c0-1.4,1.1-2.5,2.5-2.5h3V5.5z"/></g>
<g transform="translate(336,504) scale(4.12)"><path d="M3,5.5H0v-5h3c1.4,0,2.5,1.1,2.5,2.5v0C5.5,4.4,4.4,5.5,3,5.5z"/></g>
<g transform="translate(384,504) scale(4.12)"><circle cx="3" cy="3" r="2.5"/></g>
<g transform="translate(432,504) scale(4.12)"><path d="M6,5.5H3C1.6,5.5,0.5,4.4,0.5,3v0c0-1.4,1.1-2.5,2.5-2.5h3V5.5z"/></g>
<g transform="translate(456,504) scale(4.12)"><path d="M3,5.5H0v-5h3c1.4,0,2.5,1.1,2.5,2.5v0C5.5,4.4,4.4,5.5,3,5.5z"/></g>
<g transform="translate(552,504) scale(4.12)"><path d="M6,5.5H3C1.6,5.5,0.5,4.4,0.5,3v0c0-1.4,1.1-2.5,2.5-2.5h3V5.5z"/></g>
<g transform="translate(576,504) scale(4.12)"><path d="M3,5.5H0v-5h3c1.4,0,2.5,1.1,2.5,2.5v0C5.5,4.4,4.4,5.5,3,5.5z"/></g>
<g transform="translate(624,504) scale(4.12)"><circle cx="3" cy="3" r="2.5"/></g>
<g transform="translate(672,504) scale(4.12)"><circle cx="3" cy="3" r="2.5"/></g>
<g transform="translate(720,504) scale(4.12)"><circle cx="3" cy="3" r="2.5"/></g>
<g transform="translate(768,504) scale(4.12)"><path d="M6,5.5H3C1.6,5.5,0.5,4.4,0.5,3v0c0-1.4,1.1-2.5,2.5-2.5h3V5.5z"/></g>
<g transform="translate(792,504) scale(4.12)"><path d="M3,5.5H0v-5h3c1.4,0,2.5,1.1,2.5,2.5v0C5.5,4.4,4.4,5.5,3,5.5z"/></g>
<g transform="translate(120,528) scale(4.12)"><circle cx="3" cy="3" r="2.5"/></g>
<g transform="translate(192,528) scale(4.12)"><path d="M6,5.5H3C1.6,5.5,0.5,4.4,0.5,3v0c0-1.4,1.1-2.5,2.5-2.5h3V5.5z"/></g>
<g transform="translate(216,528) scale(4.12)"><rect y="0.5" width="6" height="5"/></g>
<g transform="translate(240,528) scale(4.12)"><rect y="0.5" width="6" height="5"/></g>
<g transform="translate(264,528) scale(4.12)"><rect y="0.5" width="6" height="5"/></g>
<g transform="translate(288,528) scale(4.12)"><rect y="0.5" width="6" height="5"/></g>
<g transform="translate(312,528) scale(4.12)"><rect y="0.5" width="6" height="5"/></g>
<g transform="translate(336,528) scale(4.12)"><rect y="0.5" width="6" height="5"/></g>
<g transform="translate(360,528) scale(4.12)"><rect y="0.5" width="6" height="5"/></g>
<g transform="translate(384,528) scale(4.12)"><path d="M3,5.5H0v-5h3c1.4,0,2.5,1.1,2.5,2.5v0C5.5,4.4,4.4,5.5,3,5.5z"/></g>
<g transform="translate(432,528) scale(4.12)"><path d="M6,5.5H3C1.6,5.5,0.5,4.4,0.5,3v0c0-1.4,1.1-2.5,2.5-2.5h3V5.5z"/></g>
<g transform="translate(456,528) scale(4.12)"><rect y="0.5" width="6" height="5"/></g>
<g transform="translate(480,528) scale(4.12)"><rect y="0.5" width="6" height="5"/></g>
<g transform="translate(504,528) scale(4.12)"><path d="M3,5.5H0v-5h3c1.4,0,2.5,1.1,2.5,2.5v0C5.5,4.4,4.4,5.5,3,5.5z"/></g>
<g transform="translate(576,528) scale(4.12)"><circle cx="3" cy="3" r="2.5"/></g>
<g transform="translate(624,528) scale(4.12)"><path d="M6,5.5H3C1.6,5.5,0.5,4.4,0.5,3v0c0-1.4,1.1-2.5,2.5-2.5h3V5.5z"/></g>
<g transform="translate(648,528) scale(4.12)"><path d="M3,5.5H0v-5h3c1.4,0,2.5,1.1,2.5,2.5v0C5.5,4.4,4.4,5.5,3,5.5z"/></g>
<g transform="translate(768,528) scale(4.12)"><path d="M6,5.5H3C1.6,5.5,0.5,4.4,0.5,3v0c0-1.4,1.1-2.5,2.5-2.5h3V5.5z"/></g>
<g transform="translate(792,528) scale(4.12)"><rect y="0.5" width="6" height="5"/></g>
<g transform="translate(816,528) scale(4.12)"><rect y="0.5" width="6" height="5"/></g>
<g transform="translate(840,528) scale(4.12)"><rect y="0.5" width="6" height="5"/></g>
<g transform="translate(864,528) scale(4.12)"><path d="M3,5.5H0v-5h3c1.4,0,2.5,1.1,2.5,2.5v0C5.5,4.4,4.4,5.5,3,5.5z"/></g>
<g transform="translate(912,528) scale(4.12)"><circle cx="3" cy="3" r="2.5"/></g>
<g transform="translate(96,552) scale(4.12)"><path d="M6,5.5H3C1.6,5.5,0.5,4.4,0.5,3v0c0-1.4,1.1-2.5,2.5-2.5h3V5.5z"/></g>
<g transform="translate(120,552) scale(4.12)"><path d="M3,5.5H0v-5h3c1.4,0,2.5,1.1,2.5,2.5v0C5.5,4.4,4.4,5.5,3,5.5z"/></g>
<g transform="translate(216,552) scale(4.12)"><circle cx="3" cy="3" r="2.5"/></g>
<g transform="translate(288,552) scale(4.12)"><circle cx="3" cy="3" r="2.5"/></g>
<g transform="translate(360,552) scale(4.12)"><path d="M6,5.5H3C1.6,5.5,0.5,4.4,0.5,3v0c0-1.4,1.1-2.5,2.5-2.5h3V5.5z"/></g>
<g transform="translate(384,552) scale(4.12)"><path d="M3,5.5H0v-5h3c1.4,0,2.5,1.1,2.5,2.5v0C5.5,4.4,4.4,5.5,3,5.5z"/></g>
<g transform="translate(432,552) scale(4.12)"><circle cx="3" cy="3" r="2.5"/></g>
<g transform="translate(480,552) scale(4.12)"><path d="M6,5.5H3C1.6,5.5,0.5,4.4,0.5,3v0c0-1.4,1.1-2.5,2.5-2.5h3V5.5z"/></g>
<g transform="translate(504,552) scale(4.12)"><path d="M3,5.5H0v-5h3c1.4,0,2.5,1.1,2.5,2.5v0C5.5,4.4,4.4,5.5,3,5.5z"/></g>
<g transform="translate(600,552) scale(4.12)"><circle cx="3" cy="3" r="2.5"/></g>
<g transform="translate(792,552) scale(4.12)"><circle cx="3" cy="3" r="2.5"/></g>
<g transform="translate(864,552) scale(4.12)"><circle cx="3" cy="3" r="2.5"/></g>
<g transform="translate(48,576) scale(4.12)"><path d="M6,5.5H3C1.6,5.5,0.5,4.4,0.5,3v0c0-1.4,1.1-2.5,2.5-2.5h3V5.5z"/></g>
<g transform="translate(72,576) scale(4.12)"><path d="M3,5.5H0v-5h3c1.4,0,2.5,1.1,2.5,2.5v0C5.5,4.4,4.4,5.5,3,5.5z"/></g>
<g transform="translate(120,576) scale(4.12)"><path d="M6,5.5H3C1.6,5.5,0.5,4.4,0.5,3v0c0-1.4,1.1-2.5,2.5-2.5h3V5.5z"/></g>
<g transform="translate(144,576) scale(4.12)"><path d="M3,5.5H0v-5h3c1.4,0,2.5,1.1,2.5,2.5v0C5.5,4.4,4.4,5.5,3,5.5z"/></g>
<g transform="translate(192,576) scale(4.12)"><path d="M6,5.5H3C1.6,5.5,0.5,4.4,0.5,3v0c0-1.4,1.1-2.5,2.5-2.5h3V5.5z"/></g>
<g transform="translate(216,576) scale(4.12)"><path d="M3,5.5H0v-5h3c1.4,0,2.5,1.1,2.5,2.5v0C5.5,4.4,4.4,5.5,3,5.5z"/></g>
<g transform="translate(264,576) scale(4.12)"><circle cx="3" cy="3" r="2.5"/></g>
<g transform="translate(312,576) scale(4.12)"><circle cx="3" cy="3" r="2.5"/></g>
<g transform="translate(360,576) scale(4.12)"><path d="M6,5.5H3C1.6,5.5,0.5,4.4,0.5,3v0c0-1.4,1.1-2.5,2.5-2.5h3V5.5z"/></g>
<g transform="translate(384,576) scale(4.12)"><path d="M3,5.5H0v-5h3c1.4,0,2.5,1.1,2.5,2.5v0C5.5,4.4,4.4,5.5,3,5.5z"/></g>
<g transform="translate(432,576) scale(4.12)"><path d="M6,5.5H3C1.6,5.5,0.5,4.4,0.5,3v0c0-1.4,1.1-2.5,2.5-2.5h3V5.5z"/></g>
<g transform="translate(456,576) scale(4.12)"><rect y="0.5" width="6" height="5"/></g>
<g transform="translate(480,576) scale(4.12)"><rect y="0.5" width="6" height="5"/></g>
<g transform="translate(504,576) scale(4.12)"><rect y="0.5" width="6" height="5"/></g>
<g transform="translate(528,576) scale(4.12)"><rect y="0.5" width="6" height="5"/></g>
<g transform="translate(552,576) scale(4.12)"><rect y="0.5" width="6" height="5"/></g>
<g transform="translate(576,576) scale(4.12)"><path d="M3,5.5H0v-5h3c1.4,0,2.5,1.1,2.5,2.5v0C5.5,4.4,4.4,5.5,3,5.5z"/></g>
<g transform="translate(624,576) scale(4.12)"><circle cx="3" cy="3" r="2.5"/></g>
<g transform="translate(696,576) scale(4.12)"><circle cx="3" cy="3" r="2.5"/></g>
<g transform="translate(864,576) scale(4.12)"><circle cx="3" cy="3" r="2.5"/></g>
<g transform="translate(912,576) scale(4.12)"><circle cx="3" cy="3" r="2.5"/></g>
<g transform="translate(96,600) scale(4.12)"><path d="M6,5.5H3C1.6,5.5,0.5,4.4,0.5,3v0c0-1.4,1.1-2.5,2.5-2.5h3V5.5z"/></g>
<g transform="translate(120,600) scale(4.12)"><rect y="0.5" width="6" height="5"/></g>
<g transform="translate(144,600) scale(4.12)"><path d="M3,5.5H0v-5h3c1.4,0,2.5,1.1,2.5,2.5v0C5.5,4.4,4.4,5.5,3,5.5z"/></g>
<g transform="translate(336,600) scale(4.12)"><circle cx="3" cy="3" r="2.5"/></g>
<g transform="translate(408,600) scale(4.12)"><circle cx="3" cy="3" r="2.5"/></g>
<g transform="translate(456,600) scale(4.12)"><path d="M6,5.5H3C1.6,5.5,0.5,4.4,0.5,3v0c0-1.4,1.1-2.5,2.5-2.5h3V5.5z"/></g>
<g transform="translate(480,600) scale(4.12)"><rect y="0.5" width="6" height="5"/></g>
<g transform="translate(504,600) scale(4.12)"><rect y="0.5" width="6" height="5"/></g>
<g transform="translate(528,600) scale(4.12)"><rect y="0.5" width="6" height="5"/></g>
<g transform="translate(552,600) scale(4.12)"><rect y="0.5" width="6" height="5"/></g>
<g transform="translate(576,600) scale(4.12)"><path d="M3,5.5H0v-5h3c1.4,0,2.5,1.1,2.5,2.5v0C5.5,4.4,4.4,5.5,3,5.5z"/></g>
<g transform="translate(624,600) scale(4.12)"><circle cx="3" cy="3" r="2.5"/></g>
<g transform="translate(672,600) scale(4.12)"><circle cx="3" cy="3" r="2.5"/></g>
<g transform="translate(744,600) scale(4.12)"><circle cx="3" cy="3" r="2.5"/></g>
<g transform="translate(792,600) scale(4.12)"><circle cx="3" cy="3" r="2.5"/></g>
<g transform="translate(912,600) scale(4.12)"><circle cx="3" cy="3" r="2.5"/></g>
<g transform="translate(48,624) scale(4.12)"><path d="M6,5.5H3C1.6,5.5,0.5,4.4,0.5,3v0c0-1.4,1.1-2.5,2.5-2.5h3V5.5z"/></g>
<g transform="translate(72,624) scale(4.12)"><path d="M3,5.5H0v-5h3c1.4,0,2.5,1.1,2.5,2.5v0C5.5,4.4,4.4,5.5,3,5.5z"/></g>
<g transform="translate(168,624) scale(4.12)"><path d="M6,5.5H3C1.6,5.5,0.5,4.4,0.5,3v0c0-1.4,1.1-2.5,2.5-2.5h3V5.5z"/></g>
<g transform="translate(192,624) scale(4.12)"><path d="M3,5.5H0v-5h3c1.4,0,2.5,1.1,2.5,2.5v0C5.5,4.4,4.4,5.5,3,5.5z"/></g>
<g transform="translate(312,624) scale(4.12)"><path d="M6,5.5H3C1.6,5.5,0.5,4.4,0.5,3v0c0-1.4,1.1-2.5,2.5-2.5h3V5.5z"/></g>
<g transform="translate(336,624) scale(4.12)"><path d="M3,5.5H0v-5h3c1.4,0,2.5,1.1,2.5,2.5v0C5.5,4.4,4.4,5.5,3,5.5z"/></g>
<g transform="translate(384,624) scale(4.12)"><path d="M6,5.5H3C1.6,5.5,0.5,4.4,0.5,3v0c0-1.4,1.1-2.5,2.5-2.5h3V5.5z"/></g>
<g transform="translate(408,624) scale(4.12)"><path d="M3,5.5H0v-5h3c1.4,0,2.5,1.1,2.5,2.5v0C5.5,4.4,4.4,5.5,3,5.5z"/></g>
<g transform="translate(456,624) scale(4.12)"><circle cx="3" cy="3" r="2.5"/></g>
<g transform="translate(576,624) scale(4.12)"><path d="M6,5.5H3C1.6,5.5,0.5,4.4,0.5,3v0c0-1.4,1.1-2.5,2.5-2.5h3V5.5z"/></g>
<g transform="translate(600,624) scale(4.12)"><rect y="0.5" width="6" height="5"/></g>
<g transform="translate(624,624) scale(4.12)"><path d="M3,5.5H0v-5h3c1.4,0,2.5,1.1,2.5,2.5v0C5.5,4.4,4.4,5.5,3,5.5z"/></g>
<g transform="translate(768,624) scale(4.12)"><path d="M6,5.5H3C1.6,5.5,0.5,4.4,0.5,3v0c0-1.4,1.1-2.5,2.5-2.5h3V5.5z"/></g>
<g transform="translate(792,624) scale(4.12)"><rect y="0.5" width="6" height="5"/></g>
<g transform="translate(816,624) scale(4.12)"><rect y="0.5" width="6" height="5"/></g>
<g transform="translate(840,624) scale(4.12)"><rect y="0.5" width="6" height="5"/></g>
<g transform="translate(864,624) scale(4.12)"><rect y="0.5" width="6" height="5"/></g>
<g transform="translate(888,624) scale(4.12)"><rect y="0.5" width="6" height="5"/></g>
<g transform="translate(912,624) scale(4.12)"><path d="M3,5.5H0v-5h3c1.4,0,2.5,1.1,2.5,2.5v0C5.5,4.4,4.4,5.5,3,5.5z"/></g>
<g transform="translate(48,648) scale(4.12)"><path d="M6,5.5H3C1.6,5.5,0.5,4.4,0.5,3v0c0-1.4,1.1-2.5,2.5-2.5h3V5.5z"/></g>
<g transform="translate(72,648) scale(4.12)"><path d="M3,5.5H0v-5h3c1.4,0,2.5,1.1,2.5,2.5v0C5.5,4.4,4.4,5.5,3,5.5z"/></g>
<g transform="translate(168,648) scale(4.12)"><circle cx="3" cy="3" r="2.5"/></g>
<g transform="translate(216,648) scale(4.12)"><circle cx="3" cy="3" r="2.5"/></g>
<g transform="translate(288,648) scale(4.12)"><circle cx="3" cy="3" r="2.5"/></g>
<g transform="translate(360,648) scale(4.12)"><path d="M6,5.5H3C1.6,5.5,0.5,4.4,0.5,3v0c0-1.4,1.1-2.5,2.5-2.5h3V5.5z"/></g>
<g transform="translate(384,648) scale(4.12)"><path d="M3,5.5H0v-5h3c1.4,0,2.5,1.1,2.5,2.5v0C5.5,4.4,4.4,5.5,3,5.5z"/></g>
<g transform="translate(552,648) scale(4.12)"><circle cx="3" cy="3" r="2.5"/></g>
<g transform="translate(600,648) scale(4.12)"><circle cx="3" cy="3" r="2.5"/></g>
<g transform="translate(648,648) scale(4.12)"><path d="M6,5.5H3C1.6,5.5,0.5,4.4,0.5,3v0c0-1.4,1.1-2.5,2.5-2.5h3V5.5z"/></g>
<g transform="translate(672,648) scale(4.12)"><rect y="0.5" width="6" height="5"/></g>
<g transform="translate(696,648) scale(4.12)"><rect y="0.5" width="6" height="5"/></g>
<g transform="translate(720,648) scale(4.12)"><path d="M3,5.5H0v-5h3c1.4,0,2.5,1.1,2.5,2.5v0C5.5,4.4,4.4,5.5,3,5.5z"/></g>
<g transform="translate(768,648) scale(4.12)"><path d="M6,5.5H3C1.6,5.5,0.5,4.4,0.5,3v0c0-1.4,1.1-2.5,2.5-2.5h3V5.5z"/></g>
<g transform="translate(792,648) scale(4.12)"><path d="M3,5.5H0v-5h3c1.4,0,2.5,1.1,2.5,2.5v0C5.5,4.4,4.4,5.5,3,5.5z"/></g>
<g transform="translate(888,648) scale(4.12)"><circle cx="3" cy="3" r="2.5"/></g>
<g transform="translate(48,672) scale(4.12)"><circle cx="3" cy="3" r="2.5"/></g>
<g transform="translate(192,672) scale(4.12)"><circle cx="3" cy="3" r="2.5"/></g>
<g transform="translate(240,672) scale(4.12)"><circle cx="3" cy="3" r="2.5"/></g>
<g transform="translate(336,672) scale(4.12)"><circle cx="3" cy="3" r="2.5"/></g>
<g transform="translate(384,672) scale(4.12)"><circle cx="3" cy="3" r="2.5"/></g>
<g transform="translate(456,672) scale(4.12)"><path d="M6,5.5H3C1.6,5.5,0.5,4.4,0.5,3v0c0-1.4,1.1-2.5,2.5-2.5h3V5.5z"/></g>
<g transform="translate(480,672) scale(4.12)"><path d="M3,5.5H0v-5h3c1.4,0,2.5,1.1,2.5,2.5v0C5.5,4.4,4.4,5.5,3,5.5z"/></g>
<g transform="translate(552,672) scale(4.12)"><path d="M6,5.5H3C1.6,5.5,0.5,4.4,0.5,3v0c0-1.4,1.1-2.5,2.5-2.5h3V5.5z"/></g>
<g transform="translate(576,672) scale(4.12)"><path d="M3,5.5H0v-5h3c1.4,0,2.5,1.1,2.5,2.5v0C5.5,4.4,4.4,5.5,3,5.5z"/></g>
<g transform="translate(648,672) scale(4.12)"><circle cx="3" cy="3" r="2.5"/></g>
<g transform="translate(768,672) scale(4.12)"><path d="M6,5.5H3C1.6,5.5,0.5,4.4,0.5,3v0c0-1.4,1.1-2.5,2.5-2.5h3V5.5z"/></g>
<g transform="translate(792,672) scale(4.12)"><rect y="0.5" width="6" height="5"/></g>
<g transform="translate(816,672) scale(4.12)"><path d="M3,5.5H0v-5h3c1.4,0,2.5,1.1,2.5,2.5v0C5.5,4.4,4.4,5.5,3,5.5z"/></g>
<g transform="translate(864,672) scale(4.12)"><path d="M6,5.5H3C1.6,5.5,0.5,4.4,0.5,3v0c0-1.4,1.1-2.5,2.5-2.5h3V5.5z"/></g>
<g transform="translate(888,672) scale(4.12)"><rect y="0.5" width="6" height="5"/></g>
<g transform="translate(912,672) scale(4.12)"><path d="M3,5.5H0v-5h3c1.4,0,2.5,1.1,2.5,2.5v0C5.5,4.4,4.4,5.5,3,5.5z"/></g>
<g transform="translate(48,696) scale(4.12)"><circle cx="3" cy="3" r="2.5"/></g>
<g transform="translate(96,696) scale(4.12)"><path d="M6,5.5H3C1.6,5.5,0.5,4.4,0.5,3v0c0-1.4,1.1-2.5,2.5-2.5h3V5.5z"/></g>
<g transform="translate(120,696) scale(4.12)"><path d="M3,5.5H0v-5h3c1.4,0,2.5,1.1,2.5,2.5v0C5.5,4.4,4.4,5.5,3,5.5z"/></g>
<g transform="translate(216,696) scale(4.12)"><circle cx="3" cy="3" r="2.5"/></g>
<g transform="translate(384,696) scale(4.12)"><path d="M6,5.5H3C1.6,5.5,0.5,4.4,0.5,3v0c0-1.4,1.1-2.5,2.5-2.5h3V5.5z"/></g>
<g transform="translate(408,696) scale(4.12)"><path d="M3,5.5H0v-5h3c1.4,0,2.5,1.1,2.5,2.5v0C5.5,4.4,4.4,5.5,3,5.5z"/></g>
<g transform="translate(456,696) scale(4.12)"><circle cx="3" cy="3" r="2.5"/></g>
<g transform="translate(504,696) scale(4.12)"><path d="M6,5.5H3C1.6,5.5,0.5,4.4,0.5,3v0c0-1.4,1.1-2.5,2.5-2.5h3V5.5z"/></g>
<g transform="translate(528,696) scale(4.12)"><rect y="0.5" width="6" height="5"/></g>
<g transform="translate(552,696) scale(4.12)"><rect y="0.5" width="6" height="5"/></g>
<g transform="translate(576,696) scale(4.12)"><rect y="0.5" width="6" height="5"/></g>
<g transform="translate(600,696) scale(4.12)"><path d="M3,5.5H0v-5h3c1.4,0,2.5,1.1,2.5,2.5v0C5.5,4.4,4.4,5.5,3,5.5z"/></g>
<g transform="translate(672,696) scale(4.12)"><circle cx="3" cy="3" r="2.5"/></g>
<g transform="translate(720,696) scale(4.12)"><path d="M6,5.5H3C1.6,5.5,0.5,4.4,0.5,3v0c0-1.4,1.1-2.5,2.5-2.5h3V5.5z"/></g>
<g transform="translate(744,696) scale(4.12)"><path d="M3,5.5H0v-5h3c1.4,0,2.5,1.1,2.5,2.5v0C5.5,4.4,4.4,5.5,3,5.5z"/></g>
<g transform="translate(792,696) scale(4.12)"><path d="M6,5.5H3C1.6,5.5,0.5,4.4,0.5,3v0c0-1.4,1.1-2.5,2.5-2.5h3V5.5z"/></g>
<g transform="translate(816,696) scale(4.12)"><path d="M3,5.5H0v-5h3c1.4,0,2.5,1.1,2.5,2.5v0C5.5,4.4,4.4,5.5,3,5.5z"/></g>
<g transform="translate(888,696) scale(4.12)"><path d="M6,5.5H3C1.6,5.5,0.5,4.4,0.5,3v0c0-1.4,1.1-2.5,2.5-2.5h3V5.5z"/></g>
<g transform="translate(912,696) scale(4.12)"><path d="M3,5.5H0v-5h3c1.4,0,2.5,1.1,2.5,2.5v0C5.5,4.4,4.4,5.5,3,5.5z"/></g>
<g transform="translate(48,720) scale(4.12)"><circle cx="3" cy="3" r="2.5"/></g>
<g transform="translate(120,720) scale(4.12)"><circle cx="3" cy="3" r="2.5"/></g>
<g transform="translate(192,720) scale(4.12)"><circle cx="3" cy="3" r="2.5"/></g>
<g transform="translate(288,720) scale(4.12)"><path d="M6,5.5H3C1.6,5.5,0.5,4.4,0.5,3v0c0-1.4,1.1-2.5,2.5-2.5h3V5.5z"/></g>
<g transform="translate(312,720) scale(4.12)"><rect y="0.5" width="6" height="5"/></g>
<g transform="translate(336,720) scale(4.12)"><rect y="0.5" width="6" height="5"/></g>
<g transform="translate(360,720) scale(4.12)"><rect y="0.5" width="6" height="5"/></g>
<g transform="translate(384,720) scale(4.12)"><path d="M3,5.5H0v-5h3c1.4,0,2.5,1.1,2.5,2.5v0C5.5,4.4,4.4,5.5,3,5.5z"/></g>
<g transform="translate(432,720) scale(4.12)"><circle cx="3" cy="3" r="2.5"/></g>
<g transform="translate(480,720) scale(4.12)"><path d="M6,5.5H3C1.6,5.5,0.5,4.4,0.5,3v0c0-1.4,1.1-2.5,2.5-2.5h3V5.5z"/></g>
<g transform="translate(504,720) scale(4.12)"><rect y="0.5" width="6" height="5"/></g>
<g transform="translate(528,720) scale(4.12)"><path d="M3,5.5H0v-5h3c1.4,0,2.5,1.1,2.5,2.5v0C5.5,4.4,4.4,5.5,3,5.5z"/></g>
<g transform="translate(576,720) scale(4.12)"><path d="M6,5.5H3C1.6,5.5,0.5,4.4,0.5,3v0c0-1.4,1.1-2.5,2.5-2.5h3V5.5z"/></g>
<g transform="translate(600,720) scale(4.12)"><rect y="0.5" width="6" height="5"/></g>
<g transform="translate(624,720) scale(4.12)"><rect y="0.5" width="6" height="5"/></g>
<g transform="translate(648,720) scale(4.12)"><rect y="0.5" width="6" height="5"/></g>
<g transform="translate(672,720) scale(4.12)"><path d="M3,5.5H0v-5h3c1.4,0,2.5,1.1,2.5,2.5v0C5.5,4.4,4.4,5.5,3,5.5z"/></g>
<g transform="translate(720,720) scale(4.12)"><path d="M6,5.5H3C1.6,5.5,0.5,4.4,0.5,3v0c0-1.4,1.1-2.5,2.5-2.5h3V5.5z"/></g>
<g transform="translate(744,720) scale(4.12)"><rect y="0.5" width="6" height="5"/></g>
<g transform="translate(768,720) scale(4.12)"><rect y="0.5" width="6" height="5"/></g>
<g transform="translate(792,720) scale(4.12)"><rect y="0.5" width="6" height="5"/></g>
<g transform="translate(816,720) scale(4.12)"><rect y="0.5" width="6" height="5"/></g>
<g transform="translate(840,720) scale(4.12)"><rect y="0.5" width="6" height="5"/></g>
<g transform="translate(864,720) scale(4.12)"><rect y="0.5" width="6" height="5"/></g>
<g transform="translate(888,720) scale(4.12)"><rect y="0.5" width="6" height="5"/></g>
<g transform="translate(912,720) scale(4.12)"><path d="M3,5.5H0v-5h3c1.4,0,2.5,1.1,2.5,2.5v0C5.5,4.4,4.4,5.5,3,5.5z"/></g>
<g transform="translate(240,744) scale(4.12)"><path d="M6,5.5H3C1.6,5.5,0.5,4.4,0.5,3v0c0-1.4,1.1-2.5,2.5-2.5h3V5.5z"/></g>
<g transform="translate(264,744) scale(4.12)"><path d="M3,5.5H0v-5h3c1.4,0,2.5,1.1,2.5,2.5v0C5.5,4.4,4.4,5.5,3,5.5z"/></g>
<g transform="translate(360,744) scale(4.12)"><circle cx="3" cy="3" r="2.5"/></g>
<g transform="translate(432,744) scale(4.12)"><path d="M6,5.5H3C1.6,5.5,0.5,4.4,0.5,3v0c0-1.4,1.1-2.5,2.5-2.5h3V5.5z"/></g>
<g transform="translate(456,744) scale(4.12)"><path d="M3,5.5H0v-5h3c1.4,0,2.5,1.1,2.5,2.5v0C5.5,4.4,4.4,5.5,3,5.5z"/></g>
<g transform="translate(504,744) scale(4.12)"><circle cx="3" cy="3" r="2.5"/></g>
<g transform="translate(576,744) scale(4.12)"><path d="M6,5.5H3C1.6,5.5,0.5,4.4,0.5,3v0c0-1.4,1.1-2.5,2.5-2.5h3V5.5z"/></g>
<g transform="translate(600,744) scale(4.12)"><path d="M3,5.5H0v-5h3c1.4,0,2.5,1.1,2.5,2.5v0C5.5,4.4,4.4,5.5,3,5.5z"/></g>
<g transform="translate(648,744) scale(4.12)"><circle cx="3" cy="3" r="2.5"/></g>
<g transform="translate(696,744) scale(4.12)"><path d="M6,5.5H3C1.6,5.5,0.5,4.4,0.5,3v0c0-1.4,1.1-2.5,2.5-2.5h3V5.5z"/></g>
<g transform="translate(720,744) scale(4.12)"><path d="M3,5.5H0v-5h3c1.4,0,2.5,1.1,2.5,2.5v0C5.5,4.4,4.4,5.5,3,5.5z"/></g>
<g transform="translate(816,744) scale(4.12)"><circle cx="3" cy="3" r="2.5"/></g>
<g transform="translate(888,744) scale(4.12)"><circle cx="3" cy="3" r="2.5"/></g>
<g transform="translate(240,768) scale(4.12)"><circle cx="3" cy="3" r="2.5"/></g>
<g transform="translate(288,768) scale(4.12)"><path d="M6,5.5H3C1.6,5.5,0.5,4.4,0.5,3v0c0-1.4,1.1-2.5,2.5-2.5h3V5.5z"/></g>
<g transform="translate(312,768) scale(4.12)"><path d="M3,5.5H0v-5h3c1.4,0,2.5,1.1,2.5,2.5v0C5.5,4.4,4.4,5.5,3,5.5z"/></g>
<g transform="translate(360,768) scale(4.12)"><path d="M6,5.5H3C1.6,5.5,0.5,4.4,0.5,3v0c0-1.4,1.1-2.5,2.5-2.5h3V5.5z"/></g>
<g transform="translate(384,768) scale(4.12)"><path d="M3,5.5H0v-5h3c1.4,0,2.5,1.1,2.5,2.5v0C5.5,4.4,4.4,5.5,3,5.5z"/></g>
<g transform="translate(432,768) scale(4.12)"><path d="M6,5.5H3C1.6,5.5,0.5,4.4,0.5,3v0c0-1.4,1.1-2.5,2.5-2.5h3V5.5z"/></g>
<g transform="translate(456,768) scale(4.12)"><path d="M3,5.5H0v-5h3c1.4,0,2.5,1.1,2.5,2.5v0C5.5,4.4,4.4,5.5,3,5.5z"/></g>
<g transform="translate(576,768) scale(4.12)"><circle cx="3" cy="3" r="2.5"/></g>
<g transform="translate(624,768) scale(4.12)"><circle cx="3" cy="3" r="2.5"/></g>
<g transform="translate(672,768) scale(4.12)"><circle cx="3" cy="3" r="2.5"/></g>
<g transform="translate(720,768) scale(4.12)"><circle cx="3" cy="3" r="2.5"/></g>
<g transform="translate(768,768) scale(4.12)"><circle cx="3" cy="3" r="2.5"/></g>
<g transform="translate(816,768) scale(4.12)"><path d="M6,5.5H3C1.6,5.5,0.5,4.4,0.5,3v0c0-1.4,1.1-2.5,2.5-2.5h3V5.5z"/></g>
<g transform="translate(840,768) scale(4.12)"><path d="M3,5.5H0v-5h3c1.4,0,2.5,1.1,2.5,2.5v0C5.5,4.4,4.4,5.5,3,5.5z"/></g>
<g transform="translate(888,768) scale(4.12)"><path d="M6,5.5H3C1.6,5.5,0.5,4.4,0.5,3v0c0-1.4,1.1-2.5,2.5-2.5h3V5.5z"/></g>
<g transform="translate(912,768) scale(4.12)"><path d="M3,5.5H0v-5h3c1.4,0,2.5,1.1,2.5,2.5v0C5.5,4.4,4.4,5.5,3,5.5z"/></g>
<g transform="translate(240,792) scale(4.12)"><path d="M6,5.5H3C1.6,5.5,0.5,4.4,0.5,3v0c0-1.4,1.1-2.5,2.5-2.5h3V5.5z"/></g>
<g transform="translate(264,792) scale(4.12)"><path d="M3,5.5H0v-5h3c1.4,0,2.5,1.1,2.5,2.5v0C5.5,4.4,4.4,5.5,3,5.5z"/></g>
<g transform="translate(384,792) scale(4.12)"><path d="M6,5.5H3C1.6,5.5,0.5,4.4,0.5,3v0c0-1.4,1.1-2.5,2.5-2.5h3V5.5z"/></g>
<g transform="translate(408,792) scale(4.12)"><path d="M3,5.5H0v-5h3c1.4,0,2.5,1.1,2.5,2.5v0C5.5,4.4,4.4,5.5,3,5.5z"/></g>
<g transform="translate(480,792) scale(4.12)"><path d="M6,5.5H3C1.6,5.5,0.5,4.4,0.5,3v0c0-1.4,1.1-2.5,2.5-2.5h3V5.5z"/></g>
<g transform="translate(504,792) scale(4.12)"><path d="M3,5.5H0v-5h3c1.4,0,2.5,1.1,2.5,2.5v0C5.5,4.4,4.4,5.5,3,5.5z"/></g>
<g transform="translate(600,792) scale(4.12)"><circle cx="3" cy="3" r="2.5"/></g>
<g transform="translate(672,792) scale(4.12)"><circle cx="3" cy="3" r="2.5"/></g>
<g transform="translate(720,792) scale(4.12)"><circle cx="3" cy="3" r="2.5"/></g>
<g transform="translate(816,792) scale(4.12)"><circle cx="3" cy="3" r="2.5"/></g>
<g transform="translate(888,792) scale(4.12)"><circle cx="3" cy="3" r="2.5"/></g>
<g transform="translate(240,816) scale(4.12)"><circle cx="3" cy="3" r="2.5"/></g>
<g transform="translate(312,816) scale(4.12)"><circle cx="3" cy="3" r="2.5"/></g>
<g transform="translate(360,816) scale(4.12)"><circle cx="3" cy="3" r="2.5"/></g>
<g transform="translate(432,816) scale(4.12)"><path d="M6,5.5H3C1.6,5.5,0.5,4.4,0.5,3v0c0-1.4,1.1-2.5,2.5-2.5h3V5.5z"/></g>
<g transform="translate(456,816) scale(4.12)"><rect y="0.5" width="6" height="5"/></g>
<g transform="translate(480,816) scale(4.12)"><rect y="0.5" width="6" height="5"/></g>
<g transform="translate(504,816) scale(4.12)"><rect y="0.5" width="6" height="5"/></g>
<g transform="translate(528,816) scale(4.12)"><rect y="0.5" width="6" height="5"/></g>
<g transform="translate(552,816) scale(4.12)"><rect y="0.5" width="6" height="5"/></g>
<g transform="translate(576,816) scale(4.12)"><rect y="0.5" width="6" height="5"/></g>
<g transform="translate(600,816) scale(4.12)"><rect y="0.5" width="6" height="5"/></g>
<g transform="translate(624,816) scale(4.12)"><rect y="0.5" width="6" height="5"/></g>
<g transform="translate(648,816) scale(4.12)"><path d="M3,5.5H0v-5h3c1.4,0,2.5,1.1,2.5,2.5v0C5.5,4.4,4.4,5.5,3,5.5z"/></g>
<g transform="translate(696,816) scale(4.12)"><path d="M6,5.5H3C1.6,5.5,0.5,4.4,0.5,3v0c0-1.4,1.1-2.5,2.5-2.5h3V5.5z"/></g>
<g transform="translate(720,816) scale(4.12)"><rect y="0.5" width="6" height="5"/></g>
<g transform="translate(744,816) scale(4.12)"><rect y="0.5" width="6" height="5"/></g>
<g transform="translate(768,816) scale(4.12)"><rect y="0.5" width="6" height="5"/></g>
<g transform="translate(792,816) scale(4.12)"><rect y="0.5" width="6" height="5"/></g>
<g transform="translate(816,816) scale(4.12)"><path d="M3,5.5H0v-5h3c1.4,0,2.5,1.1,2.5,2.5v0C5.5,4.4,4.4,5.5,3,5.5z"/></g>
<g transform="translate(864,816) scale(4.12)"><path d="M6,5.5H3C1.6,5.5,0.5,4.4,0.5,3v0c0-1.4,1.1-2.5,2.5-2.5h3V5.5z"/></g>
<g transform="translate(888,816) scale(4.12)"><path d="M3,5.5H0v-5h3c1.4,0,2.5,1.1,2.5,2.5v0C5.5,4.4,4.4,5.5,3,5.5z"/></g>
<g transform="translate(240,840) scale(4.12)"><path d="M6,5.5H3C1.6,5.5,0.5,4.4,0.5,3v0c0-1.4,1.1-2.5,2.5-2.5h3V5.5z"/></g>
<g transform="translate(264,840) scale(4.12)"><path d="M3,5.5H0v-5h3c1.4,0,2.5,1.1,2.5,2.5v0C5.5,4.4,4.4,5.5,3,5.5z"/></g>
<g transform="translate(360,840) scale(4.12)"><circle cx="3" cy="3" r="2.5"/></g>
<g transform="translate(408,840) scale(4.12)"><path d="M6,5.5H3C1.6,5.5,0.5,4.4,0.5,3v0c0-1.4,1.1-2.5,2.5-2.5h3V5.5z"/></g>
<g transform="translate(432,840) scale(4.12)"><rect y="0.5" width="6" height="5"/></g>
<g transform="translate(456,840) scale(4.12)"><rect y="0.5" width="6" height="5"/></g>
<g transform="translate(480,840) scale(4.12)"><path d="M3,5.5H0v-5h3c1.4,0,2.5,1.1,2.5,2.5v0C5.5,4.4,4.4,5.5,3,5.5z"/></g>
<g transform="translate(552,840) scale(4.12)"><circle cx="3" cy="3" r="2.5"/></g>
<g transform="translate(648,840) scale(4.12)"><circle cx="3" cy="3" r="2.5"/></g>
<g transform="translate(768,840) scale(4.12)"><path d="M6,5.5H3C1.6,5.5,0.5,4.4,0.5,3v0c0-1.4,1.1-2.5,2.5-2.5h3V5.5z"/></g>
<g transform="translate(792,840) scale(4.12)"><rect y="0.5" width="6" height="5"/></g>
<g transform="translate(816,840) scale(4.12)"><path d="M3,5.5H0v-5h3c1.4,0,2.5,1.1,2.5,2.5v0C5.5,4.4,4.4,5.5,3,5.5z"/></g>
<g transform="translate(864,840) scale(4.12)"><path d="M6,5.5H3C1.6,5.5,0.5,4.4,0.5,3v0c0-1.4,1.1-2.5,2.5-2.5h3V5.5z"/></g>
<g transform="translate(888,840) scale(4.12)"><path d="M3,5.5H0v-5h3c1.4,0,2.5,1.1,2.5,2.5v0C5.5,4.4,4.4,5.5,3,5.5z"/></g>
<g transform="translate(240,864) scale(4.12)"><circle cx="3" cy="3" r="2.5"/></g>
<g transform="translate(312,864) scale(4.12)"><path d="M6,5.5H3C1.6,5.5,0.5,4.4,0.5,3v0c0-1.4,1.1-2.5,2.5-2.5h3V5.5z"/></g>
<g transform="translate(336,864) scale(4.12)"><rect y="0.5" width="6" height="5"/></g>
<g transform="translate(360,864) scale(4.12)"><path d="M3,5.5H0v-5h3c1.4,0,2.5,1.1,2.5,2.5v0C5.5,4.4,4.4,5.5,3,5.5z"/></g>
<g transform="translate(408,864) scale(4.12)"><path d="M6,5.5H3C1.6,5.5,0.5,4.4,0.5,3v0c0-1.4,1.1-2.5,2.5-2.5h3V5.5z"/></g>
<g transform="translate(432,864) scale(4.12)"><rect y="0.5" width="6" height="5"/></g>
<g transform="translate(456,864) scale(4.12)"><path d="M3,5.5H0v-5h3c1.4,0,2.5,1.1,2.5,2.5v0C5.5,4.4,4.4,5.5,3,5.5z"/></g>
<g transform="translate(528,864) scale(4.12)"><circle cx="3" cy="3" r="2.5"/></g>
<g transform="translate(600,864) scale(4.12)"><path d="M6,5.5H3C1.6,5.5,0.5,4.4,0.5,3v0c0-1.4,1.1-2.5,2.5-2.5h3V5.5z"/></g>
<g transform="translate(624,864) scale(4.12)"><path d="M3,5.5H0v-5h3c1.4,0,2.5,1.1,2.5,2.5v0C5.5,4.4,4.4,5.5,3,5.5z"/></g>
<g transform="translate(672,864) scale(4.12)"><circle cx="3" cy="3" r="2.5"/></g>
<g transform="translate(720,864) scale(4.12)"><path d="M6,5.5H3C1.6,5.5,0.5,4.4,0.5,3v0c0-1.4,1.1-2.5,2.5-2.5h3V5.5z"/></g>
<g transform="translate(744,864) scale(4.12)"><path d="M3,5.5H0v-5h3c1.4,0,2.5,1.1,2.5,2.5v0C5.5,4.4,4.4,5.5,3,5.5z"/></g>
<g transform="translate(792,864) scale(4.12)"><circle cx="3" cy="3" r="2.5"/></g>
<g transform="translate(912,864) scale(4.12)"><circle cx="3" cy="3" r="2.5"/></g>
<g transform="translate(240,888) scale(4.12)"><path d="M6,5.5H3C1.6,5.5,0.5,4.4,0.5,3v0c0-1.4,1.1-2.5,2.5-2.5h3V5.5z"/></g>
<g transform="translate(264,888) scale(4.12)"><rect y="0.5" width="6" height="5"/></g>
<g transform="translate(288,888) scale(4.12)"><path d="M3,5.5H0v-5h3c1.4,0,2.5,1.1,2.5,2.5v0C5.5,4.4,4.4,5.5,3,5.5z"/></g>
<g transform="translate(336,888) scale(4.12)"><circle cx="3" cy="3" r="2.5"/></g>
<g transform="translate(408,888) scale(4.12)"><path d="M6,5.5H3C1.6,5.5,0.5,4.4,0.5,3v0c0-1.4,1.1-2.5,2.5-2.5h3V5.5z"/></g>
<g transform="translate(432,888) scale(4.12)"><path d="M3,5.5H0v-5h3c1.4,0,2.5,1.1,2.5,2.5v0C5.5,4.4,4.4,5.5,3,5.5z"/></g>
<g transform="translate(552,888) scale(4.12)"><path d="M6,5.5H3C1.6,5.5,0.5,4.4,0.5,3v0c0-1.4,1.1-2.5,2.5-2.5h3V5.5z"/></g>
<g transform="translate(576,888) scale(4.12)"><rect y="0.5" width="6" height="5"/></g>
<g transform="translate(600,888) scale(4.12)"><path d="M3,5.5H0v-5h3c1.4,0,2.5,1.1,2.5,2.5v0C5.5,4.4,4.4,5.5,3,5.5z"/></g>
<g transform="translate(672,888) scale(4.12)"><path d="M6,5.5H3C1.6,5.5,0.5,4.4,0.5,3v0c0-1.4,1.1-2.5,2.5-2.5h3V5.5z"/></g>
<g transform="translate(696,888) scale(4.12)"><rect y="0.5" width="6" height="5"/></g>
<g transform="translate(720,888) scale(4.12)"><rect y="0.5" width="6" height="5"/></g>
<g transform="translate(744,888) scale(4.12)"><rect y="0.5" width="6" height="5"/></g>
<g transform="translate(768,888) scale(4.12)"><path d="M3,5.5H0v-5h3c1.4,0,2.5,1.1,2.5,2.5v0C5.5,4.4,4.4,5.5,3,5.5z"/></g>
<g transform="translate(816,888) scale(4.12)"><circle cx="3" cy="3" r="2.5"/></g>
<g transform="translate(912,888) scale(4.12)"><circle cx="3" cy="3" r="2.5"/></g>
<g transform="translate(264,912) scale(4.12)"><circle cx="3" cy="3" r="2.5"/></g>
<g transform="translate(312,912) scale(4.12)"><circle cx="3" cy="3" r="2.5"/></g>
<g transform="translate(360,912) scale(4.12)"><circle cx="3" cy="3" r="2.5"/></g>
<g transform="translate(408,912) scale(4.12)"><path d="M6,5.5H3C1.6,5.5,0.5,4.4,0.5,3v0c0-1.4,1.1-2.5,2.5-2.5h3V5.5z"/></g>
<g transform="translate(432,912) scale(4.12)"><rect y="0.5" width="6" height="5"/></g>
<g transform="translate(456,912) scale(4.12)"><path d="M3,5.5H0v-5h3c1.4,0,2.5,1.1,2.5,2.5v0C5.5,4.4,4.4,5.5,3,5.5z"/></g>
<g transform="translate(528,912) scale(4.12)"><circle cx="3" cy="3" r="2.5"/></g>
<g transform="translate(576,912) scale(4.12)"><path d="M6,5.5H3C1.6,5.5,0.5,4.4,0.5,3v0c0-1.4,1.1-2.5,2.5-2.5h3V5.5z"/></g>
<g transform="translate(600,912) scale(4.12)"><rect y="0.5" width="6" height="5"/></g>
<g transform="translate(624,912) scale(4.12)"><rect y="0.5" width="6" height="5"/></g>
<g transform="translate(648,912) scale(4.12)"><rect y="0.5" width="6" height="5"/></g>
<g transform="translate(672,912) scale(4.12)"><rect y="0.5" width="6" height="5"/></g>
<g transform="translate(696,912) scale(4.12)"><path d="M3,5.5H0v-5h3c1.4,0,2.5,1.1,2.5,2.5v0C5.5,4.4,4.4,5.5,3,5.5z"/></g>
<g transform="translate(744,912) scale(4.12)"><path d="M6,5.5H3C1.6,5.5,0.5,4.4,0.5,3v0c0-1.4,1.1-2.5,2.5-2.5h3V5.5z"/></g>
<g transform="translate(768,912) scale(4.12)"><path d="M3,5.5H0v-5h3c1.4,0,2.5,1.1,2.5,2.5v0C5.5,4.4,4.4,5.5,3,5.5z"/></g>
<g transform="translate(840,912) scale(4.12)"><path d="M6,5.5H3C1.6,5.5,0.5,4.4,0.5,3v0c0-1.4,1.1-2.5,2.5-2.5h3V5.5z"/></g>
<g transform="translate(864,912) scale(4.12)"><rect y="0.5" width="6" height="5"/></g>
<g transform="translate(888,912) scale(4.12)"><rect y="0.5" width="6" height="5"/></g>
<g transform="translate(912,912) scale(4.12)"><path d="M3,5.5H0v-5h3c1.4,0,2.5,1.1,2.5,2.5v0C5.5,4.4,4.4,5.5,3,5.5z"/></g>
<g transform="translate(48,48)"><g transform="scale(12)"><path d="M0,7L0,7c0,3.9,3.1,7,7,7h0c3.9,0,7-3.1,7-7v0c0-3.9-3.1-7-7-7h0C3.1,0,0,3.1,0,7z M7,12L7,12c-2.8,0-5-2.2-5-5v0 c0-2.8,2.2-5,5-5h0c2.8,0,5,2.2,5,5v0C12,9.8,9.8,12,7,12z"/></g></g>
<g transform="translate(768,48)"><g transform="scale(12)"><path d="M0,7L0,7c0,3.9,3.1,7,7,7h0c3.9,0,7-3.1,7-7v0c0-3.9-3.1-7-7-7h0C3.1,0,0,3.1,0,7z M7,12L7,12c-2.8,0-5-2.2-5-5v0 c0-2.8,2.2-5,5-5h0c2.8,0,5,2.2,5,5v0C12,9.8,9.8,12,7,12z"/></g></g>
<g transform="translate(48,768)"><g transform="scale(12)"><path d="M0,7L0,7c0,3.9,3.1,7,7,7h0c3.9,0,7-3.1,7-7v0c0-3.9-3.1-7-7-7h0C3.1,0,0,3.1,0,7z M7,12L7,12c-2.8,0-5-2.2-5-5v0 c0-2.8,2.2-5,5-5h0c2.8,0,5,2.2,5,5v0C12,9.8,9.8,12,7,12z"/></g></g>
<g transform="translate(96,96)"><g transform="scale(12)"><circle cx="1" cy="1" r="1"/><circle cx="3" cy="1" r="1"/><circle cx="5" cy="1" r="1"/><circle cx="1" cy="3" r="1"/><circle cx="3" cy="3" r="1"/><circle cx="5" cy="3" r="1"/><circle cx="1" cy="5" r="1"/><circle cx="3" cy="5" r="1"/><circle cx="5" cy="5" r="1"/></g></g>
<g transform="translate(816,96)"><g transform="scale(12)"><circle cx="1" cy="1" r="1"/><circle cx="3" cy="1" r="1"/><circle cx="5" cy="1" r="1"/><circle cx="1" cy="3" r="1"/><circle cx="3" cy="3" r="1"/><circle cx="5" cy="3" r="1"/><circle cx="1" cy="5" r="1"/><circle cx="3" cy="5" r="1"/><circle cx="5" cy="5" r="1"/></g></g>
<g transform="translate(96,816)"><g transform="scale(12)"><circle cx="1" cy="1" r="1"/><circle cx="3" cy="1" r="1"/><circle cx="5" cy="1" r="1"/><circle cx="1" cy="3" r="1"/><circle cx="3" cy="3" r="1"/><circle cx="5" cy="3" r="1"/><circle cx="1" cy="5" r="1"/><circle cx="3" cy="5" r="1"/><circle cx="5" cy="5" r="1"/></g></g>
</g></svg>
